# xmcd
#
# Track frame offsets: 
#        150
#        16275
#        33487
#        48462
#        66625
#        79550
#        96500
#        110462
#        125362
#        139150
#        151950
#        166962
#
# Disc length: 2404 seconds
#
# Revision: 0
# Processed by: cddbd v1.5.1PL0 Copyright (c) Steve Scherf et al.
# Submitted via: ExactAudioCopy v0.95a5
#
DISCID=a009620c
DTITLE=蔡琴 - 蔡琴-经典珍藏版 DISC2
DYEAR=1900
DGENRE=Classical
TTITLE0=梦中人
TTITLE1=你的眼神
TTITLE2=菜根潭
TTITLE3=恰似你的温柔
TTITLE4=想你的时候
TTITLE5=我的思念
TTITLE6=送别
TTITLE7=远扬的梦舟
TTITLE8=再爱我一次
TTITLE9=空中歌声
TTITLE10=问白云
TTITLE11=明月千里寄相思
EXTD=
EXTT0=
EXTT1=
EXTT2=
EXTT3=
EXTT4=
EXTT5=
EXTT6=
EXTT7=
EXTT8=
EXTT9=
EXTT10=
EXTT11=
PLAYORDER=
